<svg xmlns="http://www.w3.org/2000/svg" xmlns:xlink="http://www.w3.org/1999/xlink" width="940" zoomAndPan="magnify" viewBox="0 0 705 591.000005" height="788" preserveAspectRatio="xMidYMid meet" version="1.0"><defs><clipPath id="6dd96cfc4c"><path d="M 20 239.664062 L 684 239.664062 L 684 325.769531 L 20 325.769531 Z M 20 239.664062 " clip-rule="nonzero"/></clipPath></defs><g clip-path="url(#6dd96cfc4c)"><path fill="#ea1b22" d="M 307.144531 295.648438 L 350.953125 295.648438 L 327.792969 258.441406 L 285.277344 325.714844 L 265.933594 325.714844 L 317.640625 244.902344 C 319.882812 241.636719 323.636719 239.664062 327.792969 239.664062 C 331.804688 239.664062 335.558594 241.570312 337.734375 244.765625 L 389.636719 325.71875 L 370.296875 325.71875 L 361.167969 310.683594 L 316.828125 310.683594 Z M 508.097656 310.683594 L 508.097656 240.480469 L 491.679688 240.480469 L 491.679688 317.554688 C 491.679688 319.664062 492.496094 321.703125 494.0625 323.269531 C 495.628906 324.832031 497.742188 325.71875 500.058594 325.71875 L 574.925781 325.71875 L 584.597656 310.683594 Z M 236.507812 298.097656 C 252.445312 298.097656 265.390625 285.242188 265.390625 269.324219 C 265.390625 253.40625 252.445312 240.480469 236.507812 240.480469 L 164.691406 240.480469 L 164.691406 325.71875 L 181.097656 325.71875 L 181.097656 255.515625 L 235.417969 255.515625 C 243.042969 255.515625 249.179688 261.707031 249.179688 269.324219 C 249.179688 276.941406 243.042969 283.132812 235.417969 283.132812 L 189.136719 283.066406 L 238.136719 325.71875 L 261.984375 325.71875 L 229.011719 298.097656 Z M 63.671875 325.714844 C 40.109375 325.714844 20.988281 306.671875 20.988281 283.132812 C 20.988281 259.597656 40.109375 240.480469 63.671875 240.480469 L 113.28125 240.480469 C 136.851562 240.480469 155.957031 259.597656 155.957031 283.132812 C 155.957031 306.671875 136.851562 325.71875 113.28125 325.71875 L 63.671875 325.71875 Z M 112.179688 310.683594 C 127.445312 310.683594 139.808594 298.371094 139.808594 283.132812 C 139.808594 267.894531 127.445312 255.515625 112.179688 255.515625 L 64.769531 255.515625 C 49.507812 255.515625 37.140625 267.894531 37.140625 283.132812 C 37.140625 298.371094 49.507812 310.683594 64.769531 310.683594 Z M 423.90625 325.714844 C 400.328125 325.714844 381.195312 306.671875 381.195312 283.132812 C 381.195312 259.597656 400.328125 240.480469 423.90625 240.480469 L 482.824219 240.480469 L 473.21875 255.515625 L 424.992188 255.515625 C 409.726562 255.515625 397.339844 267.898438 397.339844 283.132812 C 397.339844 298.371094 409.726562 310.683594 424.992188 310.683594 L 484.183594 310.683594 L 474.511719 325.71875 L 423.902344 325.71875 Z M 624.652344 310.683594 C 612.042969 310.683594 601.347656 302.25 598.085938 290.617188 L 668.242188 290.617188 L 677.914062 275.582031 L 598.085938 275.582031 C 601.347656 264.019531 612.042969 255.515625 624.652344 255.515625 L 672.8125 255.515625 L 682.546875 240.480469 L 623.566406 240.480469 C 599.988281 240.480469 580.855469 259.597656 580.855469 283.132812 C 580.855469 306.671875 599.988281 325.71875 623.566406 325.71875 L 674.171875 325.71875 L 683.84375 310.683594 Z M 624.652344 310.683594 " fill-opacity="1" fill-rule="nonzero"/></g></svg>