<svg xmlns="http://www.w3.org/2000/svg" xmlns:xlink="http://www.w3.org/1999/xlink" width="1366" zoomAndPan="magnify" viewBox="0 0 1024.5 576" height="768" preserveAspectRatio="xMidYMid meet" version="1.0"><defs><clipPath id="65d035f601"><path d="M 26 19 L 1024 19 L 1024 575.859375 L 26 575.859375 Z M 26 19 " clip-rule="nonzero"/></clipPath></defs><g clip-path="url(#65d035f601)"><path fill="#e89a1e" d="M 434.476562 53.109375 C 205.636719 133.046875 37.503906 346.382812 27.335938 603.273438 C 24.78125 667.777344 32.410156 730.339844 48.726562 789.398438 L 50.652344 788.742188 C 34.550781 730.546875 27.210938 668.824219 30.058594 605.148438 C 30.679688 591.285156 31.804688 577.5625 33.355469 563.96875 C 80.269531 571.515625 128 576.347656 176.402344 578.4375 C 180.824219 632.304688 190.894531 685.203125 205.753906 736.046875 L 207.140625 735.574219 C 192.332031 684.953125 182.492188 632.261719 178.402344 578.53125 C 218.101562 580.179688 258.257812 579.972656 298.746094 577.761719 C 325.828125 576.285156 352.621094 573.933594 379.175781 570.765625 C 386.972656 603.511719 395.929688 636.019531 405.964844 668.019531 L 406.765625 667.746094 C 396.746094 635.8125 387.800781 603.332031 380.085938 570.632812 C 463.578125 560.609375 544.347656 542.371094 621.589844 516.773438 L 662.28125 632.3125 L 623.515625 516.117188 C 698.890625 491 770.933594 458.902344 838.882812 420.582031 C 851.605469 449.128906 863.574219 478.605469 874.628906 508.773438 L 875.433594 508.5 C 864.355469 478.285156 852.371094 448.757812 839.683594 420.132812 C 894.386719 389.230469 946.453125 354.320312 995.484375 315.804688 C 1020.792969 356.21875 1042.703125 399.789062 1060.515625 445.609375 L 1062.011719 445.101562 C 1044.109375 399.082031 1022.238281 355.273438 997.03125 314.5625 C 1030.214844 288.40625 1062.03125 260.597656 1092.316406 231.273438 C 1135.972656 280.820312 1171.375 337.558594 1196.484375 399.410156 L 1198.460938 398.738281 C 1111.371094 184.382812 905.167969 29.492188 658.933594 19.757812 C 596.980469 17.304688 536.839844 24.222656 479.84375 39.234375 C 474.964844 40.394531 470.136719 41.660156 465.335938 43.03125 C 461.625 43.921875 457.972656 45.03125 454.414062 46.324219 C 454.128906 46.429688 453.859375 46.5625 453.574219 46.667969 C 451.039062 47.496094 448.484375 48.308594 445.96875 49.195312 C 445.472656 49.371094 444.984375 49.578125 444.488281 49.757812 C 441.148438 50.859375 437.792969 51.941406 434.476562 53.097656 Z M 454.707031 56.847656 C 456.160156 56.386719 457.613281 55.933594 459.070312 55.484375 L 483.625 125.117188 C 447.410156 136.78125 410.910156 145.800781 374.34375 152.296875 C 392.535156 103.675781 419.882812 70.695312 454.707031 56.847656 Z M 468.746094 52.554688 C 469.632812 52.296875 470.535156 52.078125 471.421875 51.824219 C 496.597656 46.519531 525.078125 50.246094 556.425781 64.253906 C 567.542969 69.222656 578.703125 75.378906 589.894531 82.574219 C 559.855469 97.074219 528.660156 109.9375 496.332031 120.921875 C 494.902344 121.40625 493.46875 121.84375 492.039062 122.320312 L 468.75 52.554688 Z M 413.035156 73.6875 C 394.320312 92.8125 379.144531 119.695312 368.03125 153.367188 C 344.8125 157.304688 321.542969 160.214844 298.339844 162.140625 C 331.339844 124.640625 370 94.675781 413.035156 73.6875 Z M 514.601562 42.574219 C 547.898438 37.851562 582.78125 37.851562 618.851562 43.042969 C 629.964844 44.640625 641 46.742188 651.964844 49.257812 C 633.726562 60.078125 614.972656 70.277344 595.734375 79.75 C 581.722656 69.957031 567.695312 61.820312 553.804688 55.484375 C 540.183594 49.273438 527.105469 45 514.601562 42.574219 Z M 353.027344 99.382812 C 329.050781 117.488281 306.960938 138.804688 287.132812 163.027344 C 276.125 163.792969 265.15625 164.304688 254.175781 164.628906 C 284.828125 139.855469 317.933594 117.960938 353.027344 99.382812 Z M 584.648438 30.816406 C 609.773438 28.570312 635.289062 27.785156 661.125 28.675781 C 668.484375 28.929688 675.824219 29.34375 683.109375 29.851562 C 675.96875 34.53125 668.738281 39.128906 661.429688 43.597656 C 646.585938 39.632812 631.566406 36.472656 616.445312 34.203125 C 605.738281 32.59375 595.136719 31.515625 584.652344 30.816406 Z M 244.574219 172.539062 C 256.597656 172.34375 268.648438 171.894531 280.714844 171.167969 C 258.125 200.207031 238.609375 233.117188 222.679688 269.34375 C 200.335938 268.507812 178.125 266.859375 156.085938 264.425781 C 182.292969 230.8125 211.972656 199.996094 244.574219 172.539062 Z M 695.71875 30.867188 C 746.097656 35.429688 794.511719 46.042969 840.308594 61.980469 C 824.027344 75.339844 807.253906 88.214844 790.015625 100.472656 C 752.292969 76.835938 712.601562 58.496094 671.621094 46.449219 C 679.757812 41.378906 687.800781 36.191406 695.71875 30.867188 Z M 291.160156 170.535156 C 291.171875 170.523438 291.203125 170.53125 291.214844 170.515625 C 315.910156 168.714844 340.664062 165.777344 365.421875 161.699219 C 356.425781 191.578125 350.433594 226.390625 347.742188 265.476562 C 307.863281 269.421875 268.199219 270.738281 228.9375 269.539062 C 246.0625 232.777344 266.964844 199.566406 291.160156 170.535156 Z M 662.789062 51.890625 C 705.230469 62.828125 746.34375 80.449219 785.347656 103.785156 C 753.640625 126.039062 720.34375 146.316406 685.632812 164.554688 C 658.46875 132.414062 630.664062 105.460938 602.828125 84.902344 C 623.394531 74.660156 643.398438 63.640625 662.789062 51.890625 Z M 371.378906 160.679688 C 409.730469 154.074219 448.0625 144.695312 486.136719 132.417969 L 521.054688 231.5 C 492.867188 239.878906 464.03125 247.023438 434.566406 252.777344 C 406.625 258.238281 378.703125 262.324219 350.898438 265.171875 C 354.269531 225.46875 361.246094 190.40625 371.375 160.679688 Z M 597.382812 87.523438 C 626.109375 107.199219 654.847656 133.816406 682.898438 166.015625 C 633.90625 191.546875 582.085938 212.863281 527.75 229.464844 L 494.433594 129.65625 C 495.847656 129.183594 497.261719 128.757812 498.675781 128.277344 C 532.867188 116.65625 565.777344 102.980469 597.386719 87.523438 Z M 153.085938 268.300781 C 175.570312 270.667969 198.257812 272.195312 221.070312 272.921875 C 202.597656 315.8125 189.152344 363.265625 181.421875 414.328125 C 145.605469 412.402344 110.085938 408.644531 74.96875 403.164062 C 95.136719 354.667969 121.539062 309.441406 153.085938 268.300781 Z M 843.945312 63.246094 C 887.953125 78.882812 929.449219 99.449219 967.859375 124.21875 C 945.097656 145.960938 921.285156 166.714844 896.53125 186.429688 C 864.246094 153.851562 829.382812 125.449219 792.582031 102.101562 C 810.171875 89.699219 827.332031 76.765625 843.945312 63.25 Z M 227.269531 273.085938 C 266.996094 274.085938 307.152344 272.59375 347.539062 268.40625 C 344.808594 310.855469 345.941406 358.253906 351.285156 409.796875 C 295.425781 415.808594 239.832031 417.304688 184.894531 414.527344 C 193.328125 363.320312 207.753906 315.855469 227.269531 273.085938 Z M 787.96875 105.34375 C 825.519531 128.109375 861.042969 156.15625 893.910156 188.519531 C 853.378906 220.601562 810.296875 249.890625 764.804688 275.96875 C 740.058594 235.257812 713.976562 198.335938 687.234375 166.460938 C 722.300781 148.128906 755.898438 127.671875 787.964844 105.34375 Z M 350.695312 268.050781 C 377.667969 265.164062 404.746094 261.148438 431.863281 255.851562 C 462.535156 249.859375 492.511719 242.394531 521.84375 233.625 L 567.558594 363.433594 C 543.625 371.230469 519.257812 378.234375 494.441406 384.40625 C 447.289062 396.125 400.003906 404.453125 352.941406 409.589844 C 347.949219 357.835938 347.304688 310.359375 350.695312 268.050781 Z M 684.539062 167.847656 C 711.738281 199.3125 738.265625 236.046875 763.390625 276.742188 C 703.539062 310.933594 639.589844 339.640625 572.011719 361.980469 L 528.484375 231.605469 C 583.070312 214.84375 635.222656 193.425781 684.539062 167.847656 Z M 72.847656 408.484375 C 108.414062 413.777344 144.417969 417.363281 180.710938 419.050781 C 174.605469 461.488281 172.441406 506.375 174.722656 553.199219 C 175.070312 560.359375 175.546875 567.480469 176.09375 574.609375 C 127.988281 572.253906 80.507812 567.0625 33.863281 559.207031 C 40.296875 506.527344 53.628906 455.984375 72.851562 408.484375 Z M 971.21875 126.355469 C 1014.519531 154.6875 1053.757812 188.449219 1088.078125 226.570312 C 1058.246094 255.949219 1026.871094 283.773438 994.148438 309.996094 C 966.117188 265.421875 934.09375 224.601562 898.945312 188.769531 C 924.015625 168.996094 948.136719 148.148438 971.21875 126.355469 Z M 184.152344 419.179688 C 239.429688 421.570312 295.402344 419.683594 351.644531 413.300781 C 354.265625 437.785156 357.816406 463.183594 362.367188 489.421875 C 366.910156 515.582031 372.308594 541.757812 378.441406 567.78125 C 353.484375 570.699219 328.269531 572.832031 302.832031 574.21875 C 260.867188 576.507812 219.28125 576.617188 178.148438 574.671875 C 177.6875 568.207031 177.253906 561.714844 176.964844 555.222656 C 174.84375 507.683594 177.410156 462.140625 184.15625 419.179688 Z M 896.328125 190.898438 C 931.929688 226.320312 964.339844 266.8125 992.597656 311.222656 C 943.976562 350.058594 892.332031 385.257812 837.980469 416.398438 C 815.957031 367.109375 791.804688 320.632812 766.167969 278.226562 C 811.964844 252.113281 855.441406 222.941406 896.328125 190.894531 Z M 353.242188 413.109375 C 399.21875 407.820312 445.34375 399.546875 491.457031 388.085938 C 517.578125 381.589844 543.210938 374.132812 568.390625 365.878906 L 620.53125 513.898438 C 543.46875 539.617188 462.804688 557.835938 379.351562 567.648438 C 373.460938 542.414062 368.3125 517.054688 363.972656 491.679688 C 359.328125 464.542969 355.773438 438.335938 353.253906 413.109375 Z M 764.757812 279.007812 C 790.648438 321.1875 815.027344 367.578125 837.171875 416.855469 C 769.515625 455.554688 697.738281 487.972656 622.507812 513.226562 L 572.84375 364.425781 C 640.515625 341.914062 704.65625 313.15625 764.765625 279.003906 Z M 764.757812 279.007812 " fill-opacity="1" fill-rule="nonzero"/></g></svg>